<svg xmlns="http://www.w3.org/2000/svg" version="1.1" xmlns:xlink="http://www.w3.org/1999/xlink" xmlns:svgjs="http://svgjs.dev/svgjs" width="1440" height="560" preserveAspectRatio="none" viewBox="0 0 1440 560"><g mask="url(&quot;#SvgjsMask1024&quot;)" fill="none"><path d="M-90.01 359.05L-90.01 359.05" stroke="rgba(166, 166, 166, 1)" stroke-width="1.5"></path><path d="M-90.01 359.05L58.93 352.78" stroke="rgba(166, 166, 166, 1)" stroke-width="1.5"></path><path d="M-90.01 359.05L-49.19 531.49" stroke="rgba(166, 166, 166, 1)" stroke-width="1.5"></path><path d="M-90.01 359.05L69.68 504.18" stroke="rgba(166, 166, 166, 1)" stroke-width="1.5"></path><path d="M-90.01 359.05L-68.71 642.52" stroke="rgba(166, 166, 166, 1)" stroke-width="1.5"></path><path d="M-90.01 359.05L226.79 386.47" stroke="rgba(166, 166, 166, 1)" stroke-width="1.5"></path><path d="M-49.19 531.49L-49.19 531.49" stroke="rgba(166, 166, 166, 1)" stroke-width="1.5"></path><path d="M-49.19 531.49L-68.71 642.52" stroke="rgba(166, 166, 166, 1)" stroke-width="1.5"></path><path d="M-49.19 531.49L69.68 504.18" stroke="rgba(166, 166, 166, 1)" stroke-width="1.5"></path><path d="M-68.71 642.52L-68.71 642.52" stroke="rgba(166, 166, 166, 1)" stroke-width="1.5"></path><path d="M58.93 352.78L58.93 352.78" stroke="rgba(166, 166, 166, 1)" stroke-width="1.5"></path><path d="M58.93 352.78L69.68 504.18" stroke="rgba(166, 166, 166, 1)" stroke-width="1.5"></path><path d="M58.93 352.78L226.79 386.47" stroke="rgba(166, 166, 166, 1)" stroke-width="1.5"></path><path d="M58.93 352.78L-49.19 531.49" stroke="rgba(166, 166, 166, 1)" stroke-width="1.5"></path><path d="M58.93 352.78L235.24 528.65" stroke="rgba(166, 166, 166, 1)" stroke-width="1.5"></path><path d="M69.68 504.18L69.68 504.18" stroke="rgba(166, 166, 166, 1)" stroke-width="1.5"></path><path d="M69.68 504.18L235.24 528.65" stroke="rgba(166, 166, 166, 1)" stroke-width="1.5"></path><path d="M69.68 504.18L-68.71 642.52" stroke="rgba(166, 166, 166, 1)" stroke-width="1.5"></path><path d="M69.68 504.18L226.79 386.47" stroke="rgba(166, 166, 166, 1)" stroke-width="1.5"></path><path d="M69.68 504.18L51.34 700.39" stroke="rgba(166, 166, 166, 1)" stroke-width="1.5"></path><path d="M51.34 700.39L51.34 700.39" stroke="rgba(166, 166, 166, 1)" stroke-width="1.5"></path><path d="M51.34 700.39L-68.71 642.52" stroke="rgba(166, 166, 166, 1)" stroke-width="1.5"></path><path d="M51.34 700.39L228.65 711.49" stroke="rgba(166, 166, 166, 1)" stroke-width="1.5"></path><path d="M51.34 700.39L-49.19 531.49" stroke="rgba(166, 166, 166, 1)" stroke-width="1.5"></path><path d="M51.34 700.39L235.24 528.65" stroke="rgba(166, 166, 166, 1)" stroke-width="1.5"></path><path d="M226.79 386.47L226.79 386.47" stroke="rgba(166, 166, 166, 1)" stroke-width="1.5"></path><path d="M226.79 386.47L235.24 528.65" stroke="rgba(166, 166, 166, 1)" stroke-width="1.5"></path><path d="M226.79 386.47L371.15 375.38" stroke="rgba(166, 166, 166, 1)" stroke-width="1.5"></path><path d="M226.79 386.47L342.07 498.42" stroke="rgba(166, 166, 166, 1)" stroke-width="1.5"></path><path d="M226.79 386.47L491.64 385.73" stroke="rgba(166, 166, 166, 1)" stroke-width="1.5"></path><path d="M235.24 528.65L235.24 528.65" stroke="rgba(166, 166, 166, 1)" stroke-width="1.5"></path><path d="M235.24 528.65L342.07 498.42" stroke="rgba(166, 166, 166, 1)" stroke-width="1.5"></path><path d="M235.24 528.65L228.65 711.49" stroke="rgba(166, 166, 166, 1)" stroke-width="1.5"></path><path d="M235.24 528.65L339.37 691.92" stroke="rgba(166, 166, 166, 1)" stroke-width="1.5"></path><path d="M228.65 711.49L228.65 711.49" stroke="rgba(166, 166, 166, 1)" stroke-width="1.5"></path><path d="M228.65 711.49L339.37 691.92" stroke="rgba(166, 166, 166, 1)" stroke-width="1.5"></path><path d="M371.15 375.38L371.15 375.38" stroke="rgba(166, 166, 166, 1)" stroke-width="1.5"></path><path d="M371.15 375.38L491.64 385.73" stroke="rgba(166, 166, 166, 1)" stroke-width="1.5"></path><path d="M371.15 375.38L342.07 498.42" stroke="rgba(166, 166, 166, 1)" stroke-width="1.5"></path><path d="M371.15 375.38L235.24 528.65" stroke="rgba(166, 166, 166, 1)" stroke-width="1.5"></path><path d="M342.07 498.42L342.07 498.42" stroke="rgba(166, 166, 166, 1)" stroke-width="1.5"></path><path d="M342.07 498.42L516.21 555.54" stroke="rgba(166, 166, 166, 1)" stroke-width="1.5"></path><path d="M342.07 498.42L491.64 385.73" stroke="rgba(166, 166, 166, 1)" stroke-width="1.5"></path><path d="M339.37 691.92L339.37 691.92" stroke="rgba(166, 166, 166, 1)" stroke-width="1.5"></path><path d="M339.37 691.92L342.07 498.42" stroke="rgba(166, 166, 166, 1)" stroke-width="1.5"></path><path d="M339.37 691.92L539.12 643.84" stroke="rgba(166, 166, 166, 1)" stroke-width="1.5"></path><path d="M339.37 691.92L516.21 555.54" stroke="rgba(166, 166, 166, 1)" stroke-width="1.5"></path><path d="M339.37 691.92L51.34 700.39" stroke="rgba(166, 166, 166, 1)" stroke-width="1.5"></path><path d="M491.64 385.73L491.64 385.73" stroke="rgba(166, 166, 166, 1)" stroke-width="1.5"></path><path d="M491.64 385.73L516.21 555.54" stroke="rgba(166, 166, 166, 1)" stroke-width="1.5"></path><path d="M491.64 385.73L696.69 408.43" stroke="rgba(166, 166, 166, 1)" stroke-width="1.5"></path><path d="M491.64 385.73L649.09 244.57" stroke="rgba(166, 166, 166, 1)" stroke-width="1.5"></path><path d="M516.21 555.54L516.21 555.54" stroke="rgba(166, 166, 166, 1)" stroke-width="1.5"></path><path d="M516.21 555.54L539.12 643.84" stroke="rgba(166, 166, 166, 1)" stroke-width="1.5"></path><path d="M516.21 555.54L683.24 545.38" stroke="rgba(166, 166, 166, 1)" stroke-width="1.5"></path><path d="M539.12 643.84L539.12 643.84" stroke="rgba(166, 166, 166, 1)" stroke-width="1.5"></path><path d="M539.12 643.84L689.33 689.49" stroke="rgba(166, 166, 166, 1)" stroke-width="1.5"></path><path d="M539.12 643.84L683.24 545.38" stroke="rgba(166, 166, 166, 1)" stroke-width="1.5"></path><path d="M649.09 244.57L649.09 244.57" stroke="rgba(166, 166, 166, 1)" stroke-width="1.5"></path><path d="M649.09 244.57L808.56 221.2" stroke="rgba(166, 166, 166, 1)" stroke-width="1.5"></path><path d="M649.09 244.57L696.69 408.43" stroke="rgba(166, 166, 166, 1)" stroke-width="1.5"></path><path d="M649.09 244.57L844.56 398.63" stroke="rgba(166, 166, 166, 1)" stroke-width="1.5"></path><path d="M649.09 244.57L683.24 545.38" stroke="rgba(166, 166, 166, 1)" stroke-width="1.5"></path><path d="M696.69 408.43L696.69 408.43" stroke="rgba(166, 166, 166, 1)" stroke-width="1.5"></path><path d="M696.69 408.43L683.24 545.38" stroke="rgba(166, 166, 166, 1)" stroke-width="1.5"></path><path d="M696.69 408.43L844.56 398.63" stroke="rgba(166, 166, 166, 1)" stroke-width="1.5"></path><path d="M696.69 408.43L839.54 522.6" stroke="rgba(166, 166, 166, 1)" stroke-width="1.5"></path><path d="M683.24 545.38L683.24 545.38" stroke="rgba(166, 166, 166, 1)" stroke-width="1.5"></path><path d="M683.24 545.38L689.33 689.49" stroke="rgba(166, 166, 166, 1)" stroke-width="1.5"></path><path d="M683.24 545.38L791.81 650.55" stroke="rgba(166, 166, 166, 1)" stroke-width="1.5"></path><path d="M683.24 545.38L839.54 522.6" stroke="rgba(166, 166, 166, 1)" stroke-width="1.5"></path><path d="M689.33 689.49L689.33 689.49" stroke="rgba(166, 166, 166, 1)" stroke-width="1.5"></path><path d="M689.33 689.49L791.81 650.55" stroke="rgba(166, 166, 166, 1)" stroke-width="1.5"></path><path d="M689.33 689.49L516.21 555.54" stroke="rgba(166, 166, 166, 1)" stroke-width="1.5"></path><path d="M689.33 689.49L839.54 522.6" stroke="rgba(166, 166, 166, 1)" stroke-width="1.5"></path><path d="M808.56 221.2L808.56 221.2" stroke="rgba(166, 166, 166, 1)" stroke-width="1.5"></path><path d="M808.56 221.2L971.87 189.44" stroke="rgba(166, 166, 166, 1)" stroke-width="1.5"></path><path d="M808.56 221.2L844.56 398.63" stroke="rgba(166, 166, 166, 1)" stroke-width="1.5"></path><path d="M808.56 221.2L970.28 361.31" stroke="rgba(166, 166, 166, 1)" stroke-width="1.5"></path><path d="M808.56 221.2L696.69 408.43" stroke="rgba(166, 166, 166, 1)" stroke-width="1.5"></path><path d="M844.56 398.63L844.56 398.63" stroke="rgba(166, 166, 166, 1)" stroke-width="1.5"></path><path d="M844.56 398.63L839.54 522.6" stroke="rgba(166, 166, 166, 1)" stroke-width="1.5"></path><path d="M844.56 398.63L970.28 361.31" stroke="rgba(166, 166, 166, 1)" stroke-width="1.5"></path><path d="M844.56 398.63L683.24 545.38" stroke="rgba(166, 166, 166, 1)" stroke-width="1.5"></path><path d="M839.54 522.6L839.54 522.6" stroke="rgba(166, 166, 166, 1)" stroke-width="1.5"></path><path d="M839.54 522.6L791.81 650.55" stroke="rgba(166, 166, 166, 1)" stroke-width="1.5"></path><path d="M791.81 650.55L791.81 650.55" stroke="rgba(166, 166, 166, 1)" stroke-width="1.5"></path><path d="M791.81 650.55L972.87 652.9" stroke="rgba(166, 166, 166, 1)" stroke-width="1.5"></path><path d="M791.81 650.55L539.12 643.84" stroke="rgba(166, 166, 166, 1)" stroke-width="1.5"></path><path d="M951.51 -41.5L951.51 -41.5" stroke="rgba(166, 166, 166, 1)" stroke-width="1.5"></path><path d="M951.51 -41.5L958.41 51.86" stroke="rgba(166, 166, 166, 1)" stroke-width="1.5"></path><path d="M951.51 -41.5L1154.08 -69.2" stroke="rgba(166, 166, 166, 1)" stroke-width="1.5"></path><path d="M951.51 -41.5L1127.84 85.33" stroke="rgba(166, 166, 166, 1)" stroke-width="1.5"></path><path d="M951.51 -41.5L971.87 189.44" stroke="rgba(166, 166, 166, 1)" stroke-width="1.5"></path><path d="M958.41 51.86L958.41 51.86" stroke="rgba(166, 166, 166, 1)" stroke-width="1.5"></path><path d="M958.41 51.86L971.87 189.44" stroke="rgba(166, 166, 166, 1)" stroke-width="1.5"></path><path d="M958.41 51.86L1127.84 85.33" stroke="rgba(166, 166, 166, 1)" stroke-width="1.5"></path><path d="M971.87 189.44L971.87 189.44" stroke="rgba(166, 166, 166, 1)" stroke-width="1.5"></path><path d="M971.87 189.44L1100.11 230.5" stroke="rgba(166, 166, 166, 1)" stroke-width="1.5"></path><path d="M971.87 189.44L970.28 361.31" stroke="rgba(166, 166, 166, 1)" stroke-width="1.5"></path><path d="M971.87 189.44L1127.84 85.33" stroke="rgba(166, 166, 166, 1)" stroke-width="1.5"></path><path d="M971.87 189.44L1088.02 357.14" stroke="rgba(166, 166, 166, 1)" stroke-width="1.5"></path><path d="M970.28 361.31L970.28 361.31" stroke="rgba(166, 166, 166, 1)" stroke-width="1.5"></path><path d="M970.28 361.31L1088.02 357.14" stroke="rgba(166, 166, 166, 1)" stroke-width="1.5"></path><path d="M972.87 652.9L972.87 652.9" stroke="rgba(166, 166, 166, 1)" stroke-width="1.5"></path><path d="M972.87 652.9L1139.6 692.8" stroke="rgba(166, 166, 166, 1)" stroke-width="1.5"></path><path d="M972.87 652.9L1093.5 519.33" stroke="rgba(166, 166, 166, 1)" stroke-width="1.5"></path><path d="M972.87 652.9L839.54 522.6" stroke="rgba(166, 166, 166, 1)" stroke-width="1.5"></path><path d="M972.87 652.9L844.56 398.63" stroke="rgba(166, 166, 166, 1)" stroke-width="1.5"></path><path d="M1154.08 -69.2L1154.08 -69.2" stroke="rgba(166, 166, 166, 1)" stroke-width="1.5"></path><path d="M1154.08 -69.2L1286.47 -80.06" stroke="rgba(166, 166, 166, 1)" stroke-width="1.5"></path><path d="M1154.08 -69.2L1127.84 85.33" stroke="rgba(166, 166, 166, 1)" stroke-width="1.5"></path><path d="M1154.08 -69.2L1280.27 58.77" stroke="rgba(166, 166, 166, 1)" stroke-width="1.5"></path><path d="M1127.84 85.33L1127.84 85.33" stroke="rgba(166, 166, 166, 1)" stroke-width="1.5"></path><path d="M1127.84 85.33L1100.11 230.5" stroke="rgba(166, 166, 166, 1)" stroke-width="1.5"></path><path d="M1127.84 85.33L1280.27 58.77" stroke="rgba(166, 166, 166, 1)" stroke-width="1.5"></path><path d="M1127.84 85.33L1262.97 192.61" stroke="rgba(166, 166, 166, 1)" stroke-width="1.5"></path><path d="M1100.11 230.5L1100.11 230.5" stroke="rgba(166, 166, 166, 1)" stroke-width="1.5"></path><path d="M1100.11 230.5L1088.02 357.14" stroke="rgba(166, 166, 166, 1)" stroke-width="1.5"></path><path d="M1088.02 357.14L1088.02 357.14" stroke="rgba(166, 166, 166, 1)" stroke-width="1.5"></path><path d="M1088.02 357.14L1093.5 519.33" stroke="rgba(166, 166, 166, 1)" stroke-width="1.5"></path><path d="M1093.5 519.33L1093.5 519.33" stroke="rgba(166, 166, 166, 1)" stroke-width="1.5"></path><path d="M1093.5 519.33L1257.82 502.08" stroke="rgba(166, 166, 166, 1)" stroke-width="1.5"></path><path d="M1093.5 519.33L1139.6 692.8" stroke="rgba(166, 166, 166, 1)" stroke-width="1.5"></path><path d="M1093.5 519.33L970.28 361.31" stroke="rgba(166, 166, 166, 1)" stroke-width="1.5"></path><path d="M1139.6 692.8L1139.6 692.8" stroke="rgba(166, 166, 166, 1)" stroke-width="1.5"></path><path d="M1139.6 692.8L1275.73 708.04" stroke="rgba(166, 166, 166, 1)" stroke-width="1.5"></path><path d="M1139.6 692.8L1257.82 502.08" stroke="rgba(166, 166, 166, 1)" stroke-width="1.5"></path><path d="M1139.6 692.8L1394.1 688.42" stroke="rgba(166, 166, 166, 1)" stroke-width="1.5"></path><path d="M1139.6 692.8L1405.56 497.74" stroke="rgba(166, 166, 166, 1)" stroke-width="1.5"></path><path d="M1286.47 -80.06L1286.47 -80.06" stroke="rgba(166, 166, 166, 1)" stroke-width="1.5"></path><path d="M1286.47 -80.06L1280.27 58.77" stroke="rgba(166, 166, 166, 1)" stroke-width="1.5"></path><path d="M1286.47 -80.06L1448.28 50.32" stroke="rgba(166, 166, 166, 1)" stroke-width="1.5"></path><path d="M1286.47 -80.06L1127.84 85.33" stroke="rgba(166, 166, 166, 1)" stroke-width="1.5"></path><path d="M1280.27 58.77L1280.27 58.77" stroke="rgba(166, 166, 166, 1)" stroke-width="1.5"></path><path d="M1280.27 58.77L1262.97 192.61" stroke="rgba(166, 166, 166, 1)" stroke-width="1.5"></path><path d="M1280.27 58.77L1448.28 50.32" stroke="rgba(166, 166, 166, 1)" stroke-width="1.5"></path><path d="M1280.27 58.77L1443.77 204.24" stroke="rgba(166, 166, 166, 1)" stroke-width="1.5"></path><path d="M1262.97 192.61L1262.97 192.61" stroke="rgba(166, 166, 166, 1)" stroke-width="1.5"></path><path d="M1262.97 192.61L1100.11 230.5" stroke="rgba(166, 166, 166, 1)" stroke-width="1.5"></path><path d="M1262.97 192.61L1264.95 370.57" stroke="rgba(166, 166, 166, 1)" stroke-width="1.5"></path><path d="M1262.97 192.61L1443.77 204.24" stroke="rgba(166, 166, 166, 1)" stroke-width="1.5"></path><path d="M1264.95 370.57L1264.95 370.57" stroke="rgba(166, 166, 166, 1)" stroke-width="1.5"></path><path d="M1264.95 370.57L1257.82 502.08" stroke="rgba(166, 166, 166, 1)" stroke-width="1.5"></path><path d="M1264.95 370.57L1410.56 400.36" stroke="rgba(166, 166, 166, 1)" stroke-width="1.5"></path><path d="M1264.95 370.57L1088.02 357.14" stroke="rgba(166, 166, 166, 1)" stroke-width="1.5"></path><path d="M1264.95 370.57L1405.56 497.74" stroke="rgba(166, 166, 166, 1)" stroke-width="1.5"></path><path d="M1264.95 370.57L1100.11 230.5" stroke="rgba(166, 166, 166, 1)" stroke-width="1.5"></path><path d="M1257.82 502.08L1257.82 502.08" stroke="rgba(166, 166, 166, 1)" stroke-width="1.5"></path><path d="M1257.82 502.08L1405.56 497.74" stroke="rgba(166, 166, 166, 1)" stroke-width="1.5"></path><path d="M1257.82 502.08L1410.56 400.36" stroke="rgba(166, 166, 166, 1)" stroke-width="1.5"></path><path d="M1257.82 502.08L1275.73 708.04" stroke="rgba(166, 166, 166, 1)" stroke-width="1.5"></path><path d="M1275.73 708.04L1275.73 708.04" stroke="rgba(166, 166, 166, 1)" stroke-width="1.5"></path><path d="M1275.73 708.04L1394.1 688.42" stroke="rgba(166, 166, 166, 1)" stroke-width="1.5"></path><path d="M1275.73 708.04L1405.56 497.74" stroke="rgba(166, 166, 166, 1)" stroke-width="1.5"></path><path d="M1275.73 708.04L1093.5 519.33" stroke="rgba(166, 166, 166, 1)" stroke-width="1.5"></path><path d="M1275.73 708.04L972.87 652.9" stroke="rgba(166, 166, 166, 1)" stroke-width="1.5"></path><path d="M1448.28 50.32L1448.28 50.32" stroke="rgba(166, 166, 166, 1)" stroke-width="1.5"></path><path d="M1448.28 50.32L1565.26 40.63" stroke="rgba(166, 166, 166, 1)" stroke-width="1.5"></path><path d="M1448.28 50.32L1544.51 -44.05" stroke="rgba(166, 166, 166, 1)" stroke-width="1.5"></path><path d="M1448.28 50.32L1443.77 204.24" stroke="rgba(166, 166, 166, 1)" stroke-width="1.5"></path><path d="M1443.77 204.24L1443.77 204.24" stroke="rgba(166, 166, 166, 1)" stroke-width="1.5"></path><path d="M1443.77 204.24L1571.95 254.16" stroke="rgba(166, 166, 166, 1)" stroke-width="1.5"></path><path d="M1410.56 400.36L1410.56 400.36" stroke="rgba(166, 166, 166, 1)" stroke-width="1.5"></path><path d="M1410.56 400.36L1405.56 497.74" stroke="rgba(166, 166, 166, 1)" stroke-width="1.5"></path><path d="M1405.56 497.74L1405.56 497.74" stroke="rgba(166, 166, 166, 1)" stroke-width="1.5"></path><path d="M1394.1 688.42L1394.1 688.42" stroke="rgba(166, 166, 166, 1)" stroke-width="1.5"></path><path d="M1394.1 688.42L1578.99 648.01" stroke="rgba(166, 166, 166, 1)" stroke-width="1.5"></path><path d="M1394.1 688.42L1405.56 497.74" stroke="rgba(166, 166, 166, 1)" stroke-width="1.5"></path><path d="M1394.1 688.42L1257.82 502.08" stroke="rgba(166, 166, 166, 1)" stroke-width="1.5"></path><path d="M1394.1 688.42L1581.1 519.31" stroke="rgba(166, 166, 166, 1)" stroke-width="1.5"></path><path d="M1544.51 -44.05L1544.51 -44.05" stroke="rgba(166, 166, 166, 1)" stroke-width="1.5"></path><path d="M1544.51 -44.05L1565.26 40.63" stroke="rgba(166, 166, 166, 1)" stroke-width="1.5"></path><path d="M1544.51 -44.05L1286.47 -80.06" stroke="rgba(166, 166, 166, 1)" stroke-width="1.5"></path><path d="M1544.51 -44.05L1443.77 204.24" stroke="rgba(166, 166, 166, 1)" stroke-width="1.5"></path><path d="M1565.26 40.63L1565.26 40.63" stroke="rgba(166, 166, 166, 1)" stroke-width="1.5"></path><path d="M1565.26 40.63L1443.77 204.24" stroke="rgba(166, 166, 166, 1)" stroke-width="1.5"></path><path d="M1565.26 40.63L1571.95 254.16" stroke="rgba(166, 166, 166, 1)" stroke-width="1.5"></path><path d="M1571.95 254.16L1571.95 254.16" stroke="rgba(166, 166, 166, 1)" stroke-width="1.5"></path><path d="M1571.95 254.16L1611.87 377.92" stroke="rgba(166, 166, 166, 1)" stroke-width="1.5"></path><path d="M1611.87 377.92L1611.87 377.92" stroke="rgba(166, 166, 166, 1)" stroke-width="1.5"></path><path d="M1611.87 377.92L1581.1 519.31" stroke="rgba(166, 166, 166, 1)" stroke-width="1.5"></path><path d="M1611.87 377.92L1410.56 400.36" stroke="rgba(166, 166, 166, 1)" stroke-width="1.5"></path><path d="M1611.87 377.92L1405.56 497.74" stroke="rgba(166, 166, 166, 1)" stroke-width="1.5"></path><path d="M1581.1 519.31L1581.1 519.31" stroke="rgba(166, 166, 166, 1)" stroke-width="1.5"></path><path d="M1581.1 519.31L1578.99 648.01" stroke="rgba(166, 166, 166, 1)" stroke-width="1.5"></path><path d="M1581.1 519.31L1405.56 497.74" stroke="rgba(166, 166, 166, 1)" stroke-width="1.5"></path><path d="M1581.1 519.31L1410.56 400.36" stroke="rgba(166, 166, 166, 1)" stroke-width="1.5"></path><path d="M1581.1 519.31L1571.95 254.16" stroke="rgba(166, 166, 166, 1)" stroke-width="1.5"></path><path d="M1578.99 648.01L1578.99 648.01" stroke="rgba(166, 166, 166, 1)" stroke-width="1.5"></path><circle r="5" cx="-90.01" cy="359.05" fill="rgba(166, 166, 166, 1)"></circle><circle r="5" cx="-49.19" cy="531.49" fill="rgba(166, 166, 166, 1)"></circle><circle r="5" cx="-68.71" cy="642.52" fill="rgba(166, 166, 166, 1)"></circle><circle r="5" cx="58.93" cy="352.78" fill="rgba(166, 166, 166, 1)"></circle><circle r="5" cx="69.68" cy="504.18" fill="rgba(166, 166, 166, 1)"></circle><circle r="5" cx="51.34" cy="700.39" fill="rgba(166, 166, 166, 1)"></circle><circle r="5" cx="226.79" cy="386.47" fill="rgba(166, 166, 166, 1)"></circle><circle r="5" cx="235.24" cy="528.65" fill="rgba(166, 166, 166, 1)"></circle><circle r="5" cx="228.65" cy="711.49" fill="rgba(166, 166, 166, 1)"></circle><circle r="5" cx="371.15" cy="375.38" fill="rgba(166, 166, 166, 1)"></circle><circle r="5" cx="342.07" cy="498.42" fill="rgba(166, 166, 166, 1)"></circle><circle r="5" cx="339.37" cy="691.92" fill="rgba(166, 166, 166, 1)"></circle><circle r="5" cx="491.64" cy="385.73" fill="rgba(166, 166, 166, 1)"></circle><circle r="5" cx="516.21" cy="555.54" fill="rgba(166, 166, 166, 1)"></circle><circle r="5" cx="539.12" cy="643.84" fill="rgba(166, 166, 166, 1)"></circle><circle r="5" cx="649.09" cy="244.57" fill="rgba(166, 166, 166, 1)"></circle><circle r="5" cx="696.69" cy="408.43" fill="rgba(166, 166, 166, 1)"></circle><circle r="5" cx="683.24" cy="545.38" fill="rgba(166, 166, 166, 1)"></circle><circle r="5" cx="689.33" cy="689.49" fill="rgba(166, 166, 166, 1)"></circle><circle r="5" cx="808.56" cy="221.2" fill="rgba(166, 166, 166, 1)"></circle><circle r="5" cx="844.56" cy="398.63" fill="rgba(166, 166, 166, 1)"></circle><circle r="5" cx="839.54" cy="522.6" fill="rgba(166, 166, 166, 1)"></circle><circle r="5" cx="791.81" cy="650.55" fill="rgba(166, 166, 166, 1)"></circle><circle r="5" cx="951.51" cy="-41.5" fill="rgba(166, 166, 166, 1)"></circle><circle r="5" cx="958.41" cy="51.86" fill="rgba(166, 166, 166, 1)"></circle><circle r="5" cx="971.87" cy="189.44" fill="rgba(166, 166, 166, 1)"></circle><circle r="5" cx="970.28" cy="361.31" fill="rgba(166, 166, 166, 1)"></circle><circle r="5" cx="972.87" cy="652.9" fill="rgba(166, 166, 166, 1)"></circle><circle r="5" cx="1154.08" cy="-69.2" fill="rgba(166, 166, 166, 1)"></circle><circle r="5" cx="1127.84" cy="85.33" fill="rgba(166, 166, 166, 1)"></circle><circle r="5" cx="1100.11" cy="230.5" fill="rgba(166, 166, 166, 1)"></circle><circle r="5" cx="1088.02" cy="357.14" fill="rgba(166, 166, 166, 1)"></circle><circle r="5" cx="1093.5" cy="519.33" fill="rgba(166, 166, 166, 1)"></circle><circle r="5" cx="1139.6" cy="692.8" fill="rgba(166, 166, 166, 1)"></circle><circle r="5" cx="1286.47" cy="-80.06" fill="rgba(166, 166, 166, 1)"></circle><circle r="5" cx="1280.27" cy="58.77" fill="rgba(166, 166, 166, 1)"></circle><circle r="5" cx="1262.97" cy="192.61" fill="rgba(166, 166, 166, 1)"></circle><circle r="5" cx="1264.95" cy="370.57" fill="rgba(166, 166, 166, 1)"></circle><circle r="5" cx="1257.82" cy="502.08" fill="rgba(166, 166, 166, 1)"></circle><circle r="5" cx="1275.73" cy="708.04" fill="rgba(166, 166, 166, 1)"></circle><circle r="5" cx="1448.28" cy="50.32" fill="rgba(166, 166, 166, 1)"></circle><circle r="5" cx="1443.77" cy="204.24" fill="rgba(166, 166, 166, 1)"></circle><circle r="5" cx="1410.56" cy="400.36" fill="rgba(166, 166, 166, 1)"></circle><circle r="5" cx="1405.56" cy="497.74" fill="rgba(166, 166, 166, 1)"></circle><circle r="5" cx="1394.1" cy="688.42" fill="rgba(166, 166, 166, 1)"></circle><circle r="5" cx="1544.51" cy="-44.05" fill="rgba(166, 166, 166, 1)"></circle><circle r="5" cx="1565.26" cy="40.63" fill="rgba(166, 166, 166, 1)"></circle><circle r="5" cx="1571.95" cy="254.16" fill="rgba(166, 166, 166, 1)"></circle><circle r="5" cx="1611.87" cy="377.92" fill="rgba(166, 166, 166, 1)"></circle><circle r="5" cx="1581.1" cy="519.31" fill="rgba(166, 166, 166, 1)"></circle><circle r="5" cx="1578.99" cy="648.01" fill="rgba(166, 166, 166, 1)"></circle><path d="M506.49 668.08L506.49 668.08" stroke="hsla(0, 0%, 35.2%, 0.68)" stroke-width="1.5"></path><path d="M506.49 668.08L398.91 647.11" stroke="hsla(0, 0%, 35.2%, 0.68)" stroke-width="1.5"></path><path d="M506.49 668.08L553.91 531.76" stroke="hsla(0, 0%, 35.2%, 0.68)" stroke-width="1.5"></path><path d="M506.49 668.08L658.82 700.94" stroke="hsla(0, 0%, 35.2%, 0.68)" stroke-width="1.5"></path><path d="M506.49 668.08L368.41 514.49" stroke="hsla(0, 0%, 35.2%, 0.68)" stroke-width="1.5"></path><path d="M698.23 503.32L698.23 503.32" stroke="hsla(0, 0%, 35.2%, 0.68)" stroke-width="1.5"></path><path d="M698.23 503.32L832.56 529.82" stroke="hsla(0, 0%, 35.2%, 0.68)" stroke-width="1.5"></path><path d="M698.23 503.32L800.97 400.79" stroke="hsla(0, 0%, 35.2%, 0.68)" stroke-width="1.5"></path><path d="M698.23 503.32L553.91 531.76" stroke="hsla(0, 0%, 35.2%, 0.68)" stroke-width="1.5"></path><path d="M698.23 503.32L808.18 639.26" stroke="hsla(0, 0%, 35.2%, 0.68)" stroke-width="1.5"></path><path d="M698.23 503.32L658.82 700.94" stroke="hsla(0, 0%, 35.2%, 0.68)" stroke-width="1.5"></path><path d="M698.23 503.32L506.49 668.08" stroke="hsla(0, 0%, 35.2%, 0.68)" stroke-width="1.5"></path><path d="M974.62 661.23L974.62 661.23" stroke="hsla(0, 0%, 35.2%, 0.68)" stroke-width="1.5"></path><path d="M974.62 661.23L999.94 552.54" stroke="hsla(0, 0%, 35.2%, 0.68)" stroke-width="1.5"></path><path d="M974.62 661.23L1104.38 658.43" stroke="hsla(0, 0%, 35.2%, 0.68)" stroke-width="1.5"></path><path d="M974.62 661.23L808.18 639.26" stroke="hsla(0, 0%, 35.2%, 0.68)" stroke-width="1.5"></path><path d="M974.62 661.23L832.56 529.82" stroke="hsla(0, 0%, 35.2%, 0.68)" stroke-width="1.5"></path><path d="M974.62 661.23L1126.59 521.44" stroke="hsla(0, 0%, 35.2%, 0.68)" stroke-width="1.5"></path><path d="M974.62 661.23L938.87 390.07" stroke="hsla(0, 0%, 35.2%, 0.68)" stroke-width="1.5"></path><path d="M1261.19 41.89L1261.19 41.89" stroke="hsla(0, 0%, 35.2%, 0.68)" stroke-width="1.5"></path><path d="M1261.19 41.89L1308.69 -51.96" stroke="hsla(0, 0%, 35.2%, 0.68)" stroke-width="1.5"></path><path d="M1261.19 41.89L1262.39 197.96" stroke="hsla(0, 0%, 35.2%, 0.68)" stroke-width="1.5"></path><path d="M1261.19 41.89L1414.54 82.08" stroke="hsla(0, 0%, 35.2%, 0.68)" stroke-width="1.5"></path><path d="M1261.19 41.89L1157.09 -92.76" stroke="hsla(0, 0%, 35.2%, 0.68)" stroke-width="1.5"></path><path d="M1392.15 215.47L1392.15 215.47" stroke="hsla(0, 0%, 35.2%, 0.68)" stroke-width="1.5"></path><path d="M1392.15 215.47L1262.39 197.96" stroke="hsla(0, 0%, 35.2%, 0.68)" stroke-width="1.5"></path><path d="M1392.15 215.47L1414.54 82.08" stroke="hsla(0, 0%, 35.2%, 0.68)" stroke-width="1.5"></path><path d="M1392.15 215.47L1539.38 220.74" stroke="hsla(0, 0%, 35.2%, 0.68)" stroke-width="1.5"></path><path d="M1391.63 649.56L1391.63 649.56" stroke="hsla(0, 0%, 35.2%, 0.68)" stroke-width="1.5"></path><path d="M1391.63 649.56L1407.47 523.91" stroke="hsla(0, 0%, 35.2%, 0.68)" stroke-width="1.5"></path><path d="M1391.63 649.56L1258.41 691.49" stroke="hsla(0, 0%, 35.2%, 0.68)" stroke-width="1.5"></path><path d="M1391.63 649.56L1543.31 686.83" stroke="hsla(0, 0%, 35.2%, 0.68)" stroke-width="1.5"></path><path d="M1391.63 649.56L1245.95 553.27" stroke="hsla(0, 0%, 35.2%, 0.68)" stroke-width="1.5"></path><path d="M1391.63 649.56L1569.71 501.64" stroke="hsla(0, 0%, 35.2%, 0.68)" stroke-width="1.5"></path><path d="M1391.63 649.56L1392.23 396.6" stroke="hsla(0, 0%, 35.2%, 0.68)" stroke-width="1.5"></path><path d="M-50.29 507.29L-50.29 507.29" stroke="hsla(0, 0%, 35.2%, 0.68)" stroke-width="1.5"></path><path d="M-50.29 507.29L-86.47 650.19" stroke="hsla(0, 0%, 35.2%, 0.68)" stroke-width="1.5"></path><path d="M-50.29 507.29L109.26 511.73" stroke="hsla(0, 0%, 35.2%, 0.68)" stroke-width="1.5"></path><path d="M-50.29 507.29L82 688.91" stroke="hsla(0, 0%, 35.2%, 0.68)" stroke-width="1.5"></path><path d="M-50.29 507.29L225.06 519.13" stroke="hsla(0, 0%, 35.2%, 0.68)" stroke-width="1.5"></path><path d="M-86.47 650.19L-86.47 650.19" stroke="hsla(0, 0%, 35.2%, 0.68)" stroke-width="1.5"></path><path d="M-86.47 650.19L82 688.91" stroke="hsla(0, 0%, 35.2%, 0.68)" stroke-width="1.5"></path><path d="M-86.47 650.19L109.26 511.73" stroke="hsla(0, 0%, 35.2%, 0.68)" stroke-width="1.5"></path><path d="M-86.47 650.19L246.07 686.9" stroke="hsla(0, 0%, 35.2%, 0.68)" stroke-width="1.5"></path><path d="M-86.47 650.19L225.06 519.13" stroke="hsla(0, 0%, 35.2%, 0.68)" stroke-width="1.5"></path><path d="M109.26 511.73L109.26 511.73" stroke="hsla(0, 0%, 35.2%, 0.68)" stroke-width="1.5"></path><path d="M109.26 511.73L225.06 519.13" stroke="hsla(0, 0%, 35.2%, 0.68)" stroke-width="1.5"></path><path d="M109.26 511.73L82 688.91" stroke="hsla(0, 0%, 35.2%, 0.68)" stroke-width="1.5"></path><path d="M82 688.91L82 688.91" stroke="hsla(0, 0%, 35.2%, 0.68)" stroke-width="1.5"></path><path d="M82 688.91L246.07 686.9" stroke="hsla(0, 0%, 35.2%, 0.68)" stroke-width="1.5"></path><path d="M82 688.91L225.06 519.13" stroke="hsla(0, 0%, 35.2%, 0.68)" stroke-width="1.5"></path><path d="M82 688.91L398.91 647.11" stroke="hsla(0, 0%, 35.2%, 0.68)" stroke-width="1.5"></path><path d="M225.06 519.13L225.06 519.13" stroke="hsla(0, 0%, 35.2%, 0.68)" stroke-width="1.5"></path><path d="M225.06 519.13L368.41 514.49" stroke="hsla(0, 0%, 35.2%, 0.68)" stroke-width="1.5"></path><path d="M225.06 519.13L246.07 686.9" stroke="hsla(0, 0%, 35.2%, 0.68)" stroke-width="1.5"></path><path d="M225.06 519.13L398.91 647.11" stroke="hsla(0, 0%, 35.2%, 0.68)" stroke-width="1.5"></path><path d="M246.07 686.9L246.07 686.9" stroke="hsla(0, 0%, 35.2%, 0.68)" stroke-width="1.5"></path><path d="M246.07 686.9L398.91 647.11" stroke="hsla(0, 0%, 35.2%, 0.68)" stroke-width="1.5"></path><path d="M368.41 514.49L368.41 514.49" stroke="hsla(0, 0%, 35.2%, 0.68)" stroke-width="1.5"></path><path d="M368.41 514.49L398.91 647.11" stroke="hsla(0, 0%, 35.2%, 0.68)" stroke-width="1.5"></path><path d="M368.41 514.49L553.91 531.76" stroke="hsla(0, 0%, 35.2%, 0.68)" stroke-width="1.5"></path><path d="M368.41 514.49L246.07 686.9" stroke="hsla(0, 0%, 35.2%, 0.68)" stroke-width="1.5"></path><path d="M398.91 647.11L398.91 647.11" stroke="hsla(0, 0%, 35.2%, 0.68)" stroke-width="1.5"></path><path d="M398.91 647.11L553.91 531.76" stroke="hsla(0, 0%, 35.2%, 0.68)" stroke-width="1.5"></path><path d="M553.91 531.76L553.91 531.76" stroke="hsla(0, 0%, 35.2%, 0.68)" stroke-width="1.5"></path><path d="M658.82 700.94L658.82 700.94" stroke="hsla(0, 0%, 35.2%, 0.68)" stroke-width="1.5"></path><path d="M658.82 700.94L808.18 639.26" stroke="hsla(0, 0%, 35.2%, 0.68)" stroke-width="1.5"></path><path d="M658.82 700.94L553.91 531.76" stroke="hsla(0, 0%, 35.2%, 0.68)" stroke-width="1.5"></path><path d="M800.97 400.79L800.97 400.79" stroke="hsla(0, 0%, 35.2%, 0.68)" stroke-width="1.5"></path><path d="M800.97 400.79L832.56 529.82" stroke="hsla(0, 0%, 35.2%, 0.68)" stroke-width="1.5"></path><path d="M800.97 400.79L938.87 390.07" stroke="hsla(0, 0%, 35.2%, 0.68)" stroke-width="1.5"></path><path d="M800.97 400.79L808.18 639.26" stroke="hsla(0, 0%, 35.2%, 0.68)" stroke-width="1.5"></path><path d="M800.97 400.79L999.94 552.54" stroke="hsla(0, 0%, 35.2%, 0.68)" stroke-width="1.5"></path><path d="M800.97 400.79L553.91 531.76" stroke="hsla(0, 0%, 35.2%, 0.68)" stroke-width="1.5"></path><path d="M832.56 529.82L832.56 529.82" stroke="hsla(0, 0%, 35.2%, 0.68)" stroke-width="1.5"></path><path d="M832.56 529.82L808.18 639.26" stroke="hsla(0, 0%, 35.2%, 0.68)" stroke-width="1.5"></path><path d="M832.56 529.82L999.94 552.54" stroke="hsla(0, 0%, 35.2%, 0.68)" stroke-width="1.5"></path><path d="M832.56 529.82L938.87 390.07" stroke="hsla(0, 0%, 35.2%, 0.68)" stroke-width="1.5"></path><path d="M808.18 639.26L808.18 639.26" stroke="hsla(0, 0%, 35.2%, 0.68)" stroke-width="1.5"></path><path d="M808.18 639.26L999.94 552.54" stroke="hsla(0, 0%, 35.2%, 0.68)" stroke-width="1.5"></path><path d="M938.87 390.07L938.87 390.07" stroke="hsla(0, 0%, 35.2%, 0.68)" stroke-width="1.5"></path><path d="M938.87 390.07L1106.93 375.98" stroke="hsla(0, 0%, 35.2%, 0.68)" stroke-width="1.5"></path><path d="M938.87 390.07L999.94 552.54" stroke="hsla(0, 0%, 35.2%, 0.68)" stroke-width="1.5"></path><path d="M999.94 552.54L999.94 552.54" stroke="hsla(0, 0%, 35.2%, 0.68)" stroke-width="1.5"></path><path d="M999.94 552.54L1126.59 521.44" stroke="hsla(0, 0%, 35.2%, 0.68)" stroke-width="1.5"></path><path d="M999.94 552.54L1104.38 658.43" stroke="hsla(0, 0%, 35.2%, 0.68)" stroke-width="1.5"></path><path d="M1157.09 -92.76L1157.09 -92.76" stroke="hsla(0, 0%, 35.2%, 0.68)" stroke-width="1.5"></path><path d="M1157.09 -92.76L1308.69 -51.96" stroke="hsla(0, 0%, 35.2%, 0.68)" stroke-width="1.5"></path><path d="M1104.6 193.4L1104.6 193.4" stroke="hsla(0, 0%, 35.2%, 0.68)" stroke-width="1.5"></path><path d="M1104.6 193.4L1262.39 197.96" stroke="hsla(0, 0%, 35.2%, 0.68)" stroke-width="1.5"></path><path d="M1104.6 193.4L1106.93 375.98" stroke="hsla(0, 0%, 35.2%, 0.68)" stroke-width="1.5"></path><path d="M1104.6 193.4L1238.34 353.02" stroke="hsla(0, 0%, 35.2%, 0.68)" stroke-width="1.5"></path><path d="M1104.6 193.4L1261.19 41.89" stroke="hsla(0, 0%, 35.2%, 0.68)" stroke-width="1.5"></path><path d="M1104.6 193.4L938.87 390.07" stroke="hsla(0, 0%, 35.2%, 0.68)" stroke-width="1.5"></path><path d="M1106.93 375.98L1106.93 375.98" stroke="hsla(0, 0%, 35.2%, 0.68)" stroke-width="1.5"></path><path d="M1106.93 375.98L1238.34 353.02" stroke="hsla(0, 0%, 35.2%, 0.68)" stroke-width="1.5"></path><path d="M1106.93 375.98L1126.59 521.44" stroke="hsla(0, 0%, 35.2%, 0.68)" stroke-width="1.5"></path><path d="M1126.59 521.44L1126.59 521.44" stroke="hsla(0, 0%, 35.2%, 0.68)" stroke-width="1.5"></path><path d="M1126.59 521.44L1245.95 553.27" stroke="hsla(0, 0%, 35.2%, 0.68)" stroke-width="1.5"></path><path d="M1126.59 521.44L1104.38 658.43" stroke="hsla(0, 0%, 35.2%, 0.68)" stroke-width="1.5"></path><path d="M1104.38 658.43L1104.38 658.43" stroke="hsla(0, 0%, 35.2%, 0.68)" stroke-width="1.5"></path><path d="M1104.38 658.43L1258.41 691.49" stroke="hsla(0, 0%, 35.2%, 0.68)" stroke-width="1.5"></path><path d="M1308.69 -51.96L1308.69 -51.96" stroke="hsla(0, 0%, 35.2%, 0.68)" stroke-width="1.5"></path><path d="M1308.69 -51.96L1443.25 -67.93" stroke="hsla(0, 0%, 35.2%, 0.68)" stroke-width="1.5"></path><path d="M1308.69 -51.96L1414.54 82.08" stroke="hsla(0, 0%, 35.2%, 0.68)" stroke-width="1.5"></path><path d="M1308.69 -51.96L1262.39 197.96" stroke="hsla(0, 0%, 35.2%, 0.68)" stroke-width="1.5"></path><path d="M1308.69 -51.96L1575.44 -47.71" stroke="hsla(0, 0%, 35.2%, 0.68)" stroke-width="1.5"></path><path d="M1262.39 197.96L1262.39 197.96" stroke="hsla(0, 0%, 35.2%, 0.68)" stroke-width="1.5"></path><path d="M1262.39 197.96L1238.34 353.02" stroke="hsla(0, 0%, 35.2%, 0.68)" stroke-width="1.5"></path><path d="M1238.34 353.02L1238.34 353.02" stroke="hsla(0, 0%, 35.2%, 0.68)" stroke-width="1.5"></path><path d="M1245.95 553.27L1245.95 553.27" stroke="hsla(0, 0%, 35.2%, 0.68)" stroke-width="1.5"></path><path d="M1245.95 553.27L1258.41 691.49" stroke="hsla(0, 0%, 35.2%, 0.68)" stroke-width="1.5"></path><path d="M1245.95 553.27L1407.47 523.91" stroke="hsla(0, 0%, 35.2%, 0.68)" stroke-width="1.5"></path><path d="M1245.95 553.27L1104.38 658.43" stroke="hsla(0, 0%, 35.2%, 0.68)" stroke-width="1.5"></path><path d="M1245.95 553.27L1238.34 353.02" stroke="hsla(0, 0%, 35.2%, 0.68)" stroke-width="1.5"></path><path d="M1258.41 691.49L1258.41 691.49" stroke="hsla(0, 0%, 35.2%, 0.68)" stroke-width="1.5"></path><path d="M1258.41 691.49L1126.59 521.44" stroke="hsla(0, 0%, 35.2%, 0.68)" stroke-width="1.5"></path><path d="M1258.41 691.49L1407.47 523.91" stroke="hsla(0, 0%, 35.2%, 0.68)" stroke-width="1.5"></path><path d="M1443.25 -67.93L1443.25 -67.93" stroke="hsla(0, 0%, 35.2%, 0.68)" stroke-width="1.5"></path><path d="M1443.25 -67.93L1575.44 -47.71" stroke="hsla(0, 0%, 35.2%, 0.68)" stroke-width="1.5"></path><path d="M1443.25 -67.93L1414.54 82.08" stroke="hsla(0, 0%, 35.2%, 0.68)" stroke-width="1.5"></path><path d="M1443.25 -67.93L1261.19 41.89" stroke="hsla(0, 0%, 35.2%, 0.68)" stroke-width="1.5"></path><path d="M1414.54 82.08L1414.54 82.08" stroke="hsla(0, 0%, 35.2%, 0.68)" stroke-width="1.5"></path><path d="M1414.54 82.08L1578.37 110.78" stroke="hsla(0, 0%, 35.2%, 0.68)" stroke-width="1.5"></path><path d="M1392.23 396.6L1392.23 396.6" stroke="hsla(0, 0%, 35.2%, 0.68)" stroke-width="1.5"></path><path d="M1392.23 396.6L1407.47 523.91" stroke="hsla(0, 0%, 35.2%, 0.68)" stroke-width="1.5"></path><path d="M1392.23 396.6L1238.34 353.02" stroke="hsla(0, 0%, 35.2%, 0.68)" stroke-width="1.5"></path><path d="M1407.47 523.91L1407.47 523.91" stroke="hsla(0, 0%, 35.2%, 0.68)" stroke-width="1.5"></path><path d="M1407.47 523.91L1569.71 501.64" stroke="hsla(0, 0%, 35.2%, 0.68)" stroke-width="1.5"></path><path d="M1407.47 523.91L1543.31 686.83" stroke="hsla(0, 0%, 35.2%, 0.68)" stroke-width="1.5"></path><path d="M1575.44 -47.71L1575.44 -47.71" stroke="hsla(0, 0%, 35.2%, 0.68)" stroke-width="1.5"></path><path d="M1575.44 -47.71L1578.37 110.78" stroke="hsla(0, 0%, 35.2%, 0.68)" stroke-width="1.5"></path><path d="M1575.44 -47.71L1414.54 82.08" stroke="hsla(0, 0%, 35.2%, 0.68)" stroke-width="1.5"></path><path d="M1575.44 -47.71L1539.38 220.74" stroke="hsla(0, 0%, 35.2%, 0.68)" stroke-width="1.5"></path><path d="M1578.37 110.78L1578.37 110.78" stroke="hsla(0, 0%, 35.2%, 0.68)" stroke-width="1.5"></path><path d="M1578.37 110.78L1539.38 220.74" stroke="hsla(0, 0%, 35.2%, 0.68)" stroke-width="1.5"></path><path d="M1539.38 220.74L1539.38 220.74" stroke="hsla(0, 0%, 35.2%, 0.68)" stroke-width="1.5"></path><path d="M1539.38 220.74L1564.76 351.18" stroke="hsla(0, 0%, 35.2%, 0.68)" stroke-width="1.5"></path><path d="M1564.76 351.18L1564.76 351.18" stroke="hsla(0, 0%, 35.2%, 0.68)" stroke-width="1.5"></path><path d="M1564.76 351.18L1569.71 501.64" stroke="hsla(0, 0%, 35.2%, 0.68)" stroke-width="1.5"></path><path d="M1564.76 351.18L1392.23 396.6" stroke="hsla(0, 0%, 35.2%, 0.68)" stroke-width="1.5"></path><path d="M1569.71 501.64L1569.71 501.64" stroke="hsla(0, 0%, 35.2%, 0.68)" stroke-width="1.5"></path><path d="M1569.71 501.64L1543.31 686.83" stroke="hsla(0, 0%, 35.2%, 0.68)" stroke-width="1.5"></path><path d="M1569.71 501.64L1392.23 396.6" stroke="hsla(0, 0%, 35.2%, 0.68)" stroke-width="1.5"></path><path d="M1543.31 686.83L1543.31 686.83" stroke="hsla(0, 0%, 35.2%, 0.68)" stroke-width="1.5"></path><path d="M1543.31 686.83L1258.41 691.49" stroke="hsla(0, 0%, 35.2%, 0.68)" stroke-width="1.5"></path><circle r="25" cx="506.49" cy="668.08" fill="url(&quot;#SvgjsRadialGradient1025&quot;)"></circle><circle r="25" cx="698.23" cy="503.32" fill="url(&quot;#SvgjsRadialGradient1025&quot;)"></circle><circle r="25" cx="974.62" cy="661.23" fill="url(&quot;#SvgjsRadialGradient1025&quot;)"></circle><circle r="25" cx="1261.19" cy="41.89" fill="url(&quot;#SvgjsRadialGradient1025&quot;)"></circle><circle r="25" cx="1392.15" cy="215.47" fill="url(&quot;#SvgjsRadialGradient1025&quot;)"></circle><circle r="25" cx="1391.63" cy="649.56" fill="url(&quot;#SvgjsRadialGradient1025&quot;)"></circle><circle r="5" cx="-50.29" cy="507.29" fill="rgba(192, 192, 192, 0.8400000000000001)"></circle><circle r="5" cx="-86.47" cy="650.19" fill="rgba(192, 192, 192, 0.8400000000000001)"></circle><circle r="5" cx="109.26" cy="511.73" fill="rgba(192, 192, 192, 0.8400000000000001)"></circle><circle r="5" cx="82" cy="688.91" fill="rgba(192, 192, 192, 0.8400000000000001)"></circle><circle r="5" cx="225.06" cy="519.13" fill="rgba(192, 192, 192, 0.8400000000000001)"></circle><circle r="5" cx="246.07" cy="686.9" fill="rgba(192, 192, 192, 0.8400000000000001)"></circle><circle r="5" cx="368.41" cy="514.49" fill="rgba(192, 192, 192, 0.8400000000000001)"></circle><circle r="5" cx="398.91" cy="647.11" fill="rgba(192, 192, 192, 0.8400000000000001)"></circle><circle r="5" cx="553.91" cy="531.76" fill="rgba(192, 192, 192, 0.8400000000000001)"></circle><circle r="5" cx="658.82" cy="700.94" fill="rgba(192, 192, 192, 0.8400000000000001)"></circle><circle r="5" cx="800.97" cy="400.79" fill="rgba(192, 192, 192, 0.8400000000000001)"></circle><circle r="5" cx="832.56" cy="529.82" fill="rgba(192, 192, 192, 0.8400000000000001)"></circle><circle r="5" cx="808.18" cy="639.26" fill="rgba(192, 192, 192, 0.8400000000000001)"></circle><circle r="5" cx="938.87" cy="390.07" fill="rgba(192, 192, 192, 0.8400000000000001)"></circle><circle r="5" cx="999.94" cy="552.54" fill="rgba(192, 192, 192, 0.8400000000000001)"></circle><circle r="5" cx="1157.09" cy="-92.76" fill="rgba(192, 192, 192, 0.8400000000000001)"></circle><circle r="5" cx="1104.6" cy="193.4" fill="rgba(192, 192, 192, 0.8400000000000001)"></circle><circle r="5" cx="1106.93" cy="375.98" fill="rgba(192, 192, 192, 0.8400000000000001)"></circle><circle r="5" cx="1126.59" cy="521.44" fill="rgba(192, 192, 192, 0.8400000000000001)"></circle><circle r="5" cx="1104.38" cy="658.43" fill="rgba(192, 192, 192, 0.8400000000000001)"></circle><circle r="5" cx="1308.69" cy="-51.96" fill="rgba(192, 192, 192, 0.8400000000000001)"></circle><circle r="5" cx="1262.39" cy="197.96" fill="rgba(192, 192, 192, 0.8400000000000001)"></circle><circle r="5" cx="1238.34" cy="353.02" fill="rgba(192, 192, 192, 0.8400000000000001)"></circle><circle r="5" cx="1245.95" cy="553.27" fill="rgba(192, 192, 192, 0.8400000000000001)"></circle><circle r="5" cx="1258.41" cy="691.49" fill="rgba(192, 192, 192, 0.8400000000000001)"></circle><circle r="5" cx="1443.25" cy="-67.93" fill="rgba(192, 192, 192, 0.8400000000000001)"></circle><circle r="5" cx="1414.54" cy="82.08" fill="rgba(192, 192, 192, 0.8400000000000001)"></circle><circle r="5" cx="1392.23" cy="396.6" fill="rgba(192, 192, 192, 0.8400000000000001)"></circle><circle r="5" cx="1407.47" cy="523.91" fill="rgba(192, 192, 192, 0.8400000000000001)"></circle><circle r="5" cx="1575.44" cy="-47.71" fill="rgba(192, 192, 192, 0.8400000000000001)"></circle><circle r="5" cx="1578.37" cy="110.78" fill="rgba(192, 192, 192, 0.8400000000000001)"></circle><circle r="5" cx="1539.38" cy="220.74" fill="rgba(192, 192, 192, 0.8400000000000001)"></circle><circle r="5" cx="1564.76" cy="351.18" fill="rgba(192, 192, 192, 0.8400000000000001)"></circle><circle r="5" cx="1569.71" cy="501.64" fill="rgba(192, 192, 192, 0.8400000000000001)"></circle><circle r="5" cx="1543.31" cy="686.83" fill="rgba(192, 192, 192, 0.8400000000000001)"></circle></g><defs><mask id="SvgjsMask1024"><rect width="1440" height="560" fill="#ffffff"></rect></mask><radialGradient id="SvgjsRadialGradient1025"><stop stop-color="#ffffff" offset="0.1"></stop><stop stop-color="rgba(69, 69, 69, 0.68)" offset="0.2"></stop><stop stop-color="rgba(69, 69, 69, 0)" offset="1"></stop></radialGradient></defs></svg>